<mxfile host="Electron" agent="Mozilla/5.0 (Windows NT 10.0; Win64; x64) AppleWebKit/537.36 (KHTML, like Gecko) draw.io/27.0.9 Chrome/134.0.6998.205 Electron/35.4.0 Safari/537.36" version="27.0.9">
  <diagram name="Página-1" id="FojTh0W5zqZUxjxtluHg">
    <mxGraphModel dx="1111" dy="529" grid="1" gridSize="10" guides="1" tooltips="1" connect="1" arrows="1" fold="1" page="1" pageScale="1" pageWidth="850" pageHeight="1100" math="0" shadow="0">
      <root>
        <mxCell id="0" />
        <mxCell id="1" parent="0" />
        <mxCell id="mOoil3UXg39VozKLvSYW-22" style="edgeStyle=orthogonalEdgeStyle;rounded=0;orthogonalLoop=1;jettySize=auto;html=1;exitX=0.5;exitY=0.5;exitDx=0;exitDy=0;exitPerimeter=0;entryX=0;entryY=0.5;entryDx=0;entryDy=0;" edge="1" parent="1" source="mOoil3UXg39VozKLvSYW-1" target="mOoil3UXg39VozKLvSYW-7">
          <mxGeometry relative="1" as="geometry" />
        </mxCell>
        <mxCell id="mOoil3UXg39VozKLvSYW-1" value="Administrador de RH" style="shape=umlActor;verticalLabelPosition=bottom;verticalAlign=top;html=1;outlineConnect=0;" vertex="1" parent="1">
          <mxGeometry x="190" y="252" width="30" height="60" as="geometry" />
        </mxCell>
        <mxCell id="mOoil3UXg39VozKLvSYW-11" value="Sistema de Processamento de Salário - Gerir Colaborador" style="swimlane;whiteSpace=wrap;html=1;" vertex="1" parent="1">
          <mxGeometry x="290" y="70" width="450" height="400" as="geometry" />
        </mxCell>
        <mxCell id="mOoil3UXg39VozKLvSYW-7" value="Gerir&lt;div&gt;Colaborador&lt;/div&gt;" style="ellipse;whiteSpace=wrap;html=1;" vertex="1" parent="mOoil3UXg39VozKLvSYW-11">
          <mxGeometry x="22" y="182" width="100" height="60" as="geometry" />
        </mxCell>
        <mxCell id="mOoil3UXg39VozKLvSYW-25" value="Criar&lt;div&gt;Funcao&lt;/div&gt;" style="ellipse;whiteSpace=wrap;html=1;" vertex="1" parent="mOoil3UXg39VozKLvSYW-11">
          <mxGeometry x="42" y="40" width="100" height="60" as="geometry" />
        </mxCell>
        <mxCell id="mOoil3UXg39VozKLvSYW-26" value="Actualizar&lt;div&gt;Funcao&lt;/div&gt;" style="ellipse;whiteSpace=wrap;html=1;" vertex="1" parent="mOoil3UXg39VozKLvSYW-11">
          <mxGeometry x="142" y="100" width="100" height="60" as="geometry" />
        </mxCell>
        <mxCell id="mOoil3UXg39VozKLvSYW-29" value="Imprimir&lt;br&gt;&lt;div&gt;&lt;span style=&quot;background-color: transparent; color: light-dark(rgb(0, 0, 0), rgb(255, 255, 255));&quot;&gt;Colaborador&lt;/span&gt;&lt;/div&gt;" style="ellipse;whiteSpace=wrap;html=1;" vertex="1" parent="mOoil3UXg39VozKLvSYW-11">
          <mxGeometry x="142" y="280" width="100" height="60" as="geometry" />
        </mxCell>
        <mxCell id="mOoil3UXg39VozKLvSYW-31" value="Eliminar&lt;div&gt;&lt;span style=&quot;background-color: transparent; color: light-dark(rgb(0, 0, 0), rgb(255, 255, 255));&quot;&gt;Funcao&lt;/span&gt;&lt;/div&gt;" style="ellipse;whiteSpace=wrap;html=1;" vertex="1" parent="mOoil3UXg39VozKLvSYW-11">
          <mxGeometry x="170" y="190" width="100" height="60" as="geometry" />
        </mxCell>
        <mxCell id="mOoil3UXg39VozKLvSYW-33" value="Realizar Importação / Exportação" style="ellipse;whiteSpace=wrap;html=1;" vertex="1" parent="mOoil3UXg39VozKLvSYW-11">
          <mxGeometry x="20" y="302" width="100" height="60" as="geometry" />
        </mxCell>
        <mxCell id="mOoil3UXg39VozKLvSYW-34" value="&amp;lt;&amp;lt;estender&amp;gt;&amp;gt;" style="html=1;verticalAlign=bottom;labelBackgroundColor=none;endArrow=open;endFill=0;dashed=1;rounded=0;exitX=0.29;exitY=0.9;exitDx=0;exitDy=0;exitPerimeter=0;" edge="1" parent="mOoil3UXg39VozKLvSYW-11" source="mOoil3UXg39VozKLvSYW-25" target="mOoil3UXg39VozKLvSYW-7">
          <mxGeometry width="160" relative="1" as="geometry">
            <mxPoint x="60" y="210" as="sourcePoint" />
            <mxPoint x="220" y="210" as="targetPoint" />
          </mxGeometry>
        </mxCell>
        <mxCell id="mOoil3UXg39VozKLvSYW-35" value="&amp;lt;&amp;lt;estender&amp;gt;&amp;gt;" style="html=1;verticalAlign=bottom;labelBackgroundColor=none;endArrow=open;endFill=0;dashed=1;rounded=0;entryX=0.95;entryY=0.35;entryDx=0;entryDy=0;entryPerimeter=0;" edge="1" parent="mOoil3UXg39VozKLvSYW-11" source="mOoil3UXg39VozKLvSYW-26" target="mOoil3UXg39VozKLvSYW-7">
          <mxGeometry width="160" relative="1" as="geometry">
            <mxPoint x="124" y="94" as="sourcePoint" />
            <mxPoint x="92" y="171" as="targetPoint" />
          </mxGeometry>
        </mxCell>
        <mxCell id="mOoil3UXg39VozKLvSYW-36" value="&amp;lt;&amp;lt;estender&amp;gt;&amp;gt;" style="html=1;verticalAlign=bottom;labelBackgroundColor=none;endArrow=open;endFill=0;dashed=1;rounded=0;" edge="1" parent="mOoil3UXg39VozKLvSYW-11" source="mOoil3UXg39VozKLvSYW-31" target="mOoil3UXg39VozKLvSYW-7">
          <mxGeometry width="160" relative="1" as="geometry">
            <mxPoint x="216" y="132" as="sourcePoint" />
            <mxPoint x="125" y="191" as="targetPoint" />
          </mxGeometry>
        </mxCell>
        <mxCell id="mOoil3UXg39VozKLvSYW-38" value="&amp;lt;&amp;lt;estender&amp;gt;&amp;gt;" style="html=1;verticalAlign=bottom;labelBackgroundColor=none;endArrow=open;endFill=0;dashed=1;rounded=0;entryX=0.5;entryY=1;entryDx=0;entryDy=0;" edge="1" parent="mOoil3UXg39VozKLvSYW-11" source="mOoil3UXg39VozKLvSYW-33" target="mOoil3UXg39VozKLvSYW-7">
          <mxGeometry x="-0.016" width="160" relative="1" as="geometry">
            <mxPoint x="215" y="239" as="sourcePoint" />
            <mxPoint x="125" y="213" as="targetPoint" />
            <mxPoint as="offset" />
          </mxGeometry>
        </mxCell>
        <mxCell id="mOoil3UXg39VozKLvSYW-39" value="&amp;lt;&amp;lt;estender&amp;gt;&amp;gt;" style="html=1;verticalAlign=bottom;labelBackgroundColor=none;endArrow=open;endFill=0;dashed=1;rounded=0;exitX=0.3;exitY=0;exitDx=0;exitDy=0;exitPerimeter=0;" edge="1" parent="mOoil3UXg39VozKLvSYW-11" source="mOoil3UXg39VozKLvSYW-29" target="mOoil3UXg39VozKLvSYW-7">
          <mxGeometry width="160" relative="1" as="geometry">
            <mxPoint x="215" y="239" as="sourcePoint" />
            <mxPoint x="125" y="213" as="targetPoint" />
          </mxGeometry>
        </mxCell>
        <mxCell id="mOoil3UXg39VozKLvSYW-47" value="Impedir Eliminação" style="ellipse;whiteSpace=wrap;html=1;" vertex="1" parent="mOoil3UXg39VozKLvSYW-11">
          <mxGeometry x="290" y="122" width="100" height="60" as="geometry" />
        </mxCell>
        <mxCell id="mOoil3UXg39VozKLvSYW-49" value="&amp;lt;&amp;lt;estender&amp;gt;&amp;gt;" style="html=1;verticalAlign=bottom;labelBackgroundColor=none;endArrow=open;endFill=0;dashed=1;rounded=0;exitX=0;exitY=1;exitDx=0;exitDy=0;" edge="1" parent="mOoil3UXg39VozKLvSYW-11" source="mOoil3UXg39VozKLvSYW-47" target="mOoil3UXg39VozKLvSYW-31">
          <mxGeometry width="160" relative="1" as="geometry">
            <mxPoint x="320" y="230" as="sourcePoint" />
            <mxPoint x="280" y="267" as="targetPoint" />
          </mxGeometry>
        </mxCell>
      </root>
    </mxGraphModel>
  </diagram>
</mxfile>
